<?xml version="1.0" standalone="no"?>
<!DOCTYPE svg PUBLIC "-//W3C//DTD SVG 20010904//EN"
 "http://www.w3.org/TR/2001/REC-SVG-20010904/DTD/svg10.dtd">
<svg version="1.0" xmlns="http://www.w3.org/2000/svg"
 width="942.000000pt" height="142.000000pt" viewBox="0 0 942.000000 142.000000"
 preserveAspectRatio="xMidYMid meet">

<g transform="translate(0.000000,142.000000) scale(0.100000,-0.100000)"
fill="#000000" stroke="none">
<path d="M4290 710 l0 -710 2565 0 2565 0 0 710 0 710 -2565 0 -2565 0 0 -710z
m1913 541 c191 -49 297 -146 365 -330 17 -49 25 -94 29 -176 13 -288 -112
-496 -347 -576 -91 -31 -297 -38 -404 -14 -206 45 -340 174 -392 375 -23 86
-23 263 -1 348 53 201 189 334 387 376 99 22 272 20 363 -3z m1160 3 c127 -29
225 -93 267 -175 42 -81 47 -197 14 -301 -18 -57 -91 -141 -145 -169 -22 -11
-39 -22 -39 -26 0 -3 66 -99 148 -211 81 -113 149 -209 150 -214 2 -4 -70 -8
-160 -7 l-163 0 -135 192 -135 192 -53 3 -52 3 0 -195 0 -196 -150 0 -150 0 0
539 0 540 53 10 c165 35 431 42 550 15z m-2005 -111 l-3 -118 -282 -3 -283 -2
0 -110 0 -110 240 0 240 0 0 -115 0 -115 -240 0 -240 0 0 -210 0 -210 -150 0
-150 0 0 555 0 555 435 0 436 0 -3 -117z m3030 -205 c79 -175 147 -316 151
-314 3 2 69 146 146 320 l140 316 183 0 182 0 0 -555 0 -555 -140 0 -140 0 -2
359 -3 359 -125 -280 -125 -279 -122 3 -123 3 -123 259 -122 260 -3 -342 -2
-342 -145 0 -145 0 0 555 0 555 187 -2 187 -3 144 -317z"/>
<path d="M5947 1029 c-144 -29 -216 -155 -204 -354 9 -150 48 -225 140 -272
43 -21 66 -26 132 -26 96 -1 154 21 203 77 58 66 66 96 66 246 1 120 -2 141
-22 186 -53 118 -172 172 -315 143z"/>
<path d="M7083 1053 c-23 -4 -23 -7 -23 -148 l0 -143 65 -7 c153 -17 243 27
260 125 14 80 -34 151 -115 169 -44 10 -144 12 -187 4z"/>
<path d="M10 705 l0 -555 150 0 150 0 0 210 0 210 240 0 240 0 0 115 0 115
-240 0 -240 0 0 110 0 110 280 0 280 0 0 120 0 120 -430 0 -430 0 0 -555z"/>
<path d="M1020 705 l0 -555 415 0 415 0 0 120 0 120 -267 2 -268 3 -3 433 -2
432 -145 0 -145 0 0 -555z"/>
<path d="M1960 705 l0 -555 435 0 435 0 0 115 0 115 -290 0 -290 0 0 110 0
110 245 0 245 0 0 115 0 115 -245 0 -245 0 0 100 0 100 285 0 285 0 0 115 0
115 -430 0 -430 0 0 -555z"/>
<path d="M2870 1255 c0 -2 86 -122 190 -266 122 -168 187 -266 181 -273 -33
-42 -401 -557 -401 -561 0 -3 72 -5 159 -5 l159 0 133 187 c121 172 133 185
145 168 8 -11 67 -94 132 -185 l118 -165 167 -3 167 -2 -210 292 c-130 181
-206 296 -201 302 5 6 86 119 181 251 95 132 177 246 183 253 8 10 -22 12
-153 10 l-164 -3 -106 -148 c-59 -81 -111 -152 -116 -157 -6 -6 -51 48 -123
150 l-114 160 -164 0 c-89 0 -163 -2 -163 -5z"/>
</g>
</svg>
