<?xml version="1.0" standalone="no"?>
<!DOCTYPE svg PUBLIC "-//W3C//DTD SVG 20010904//EN"
 "http://www.w3.org/TR/2001/REC-SVG-20010904/DTD/svg10.dtd">
<svg version="1.0" xmlns="http://www.w3.org/2000/svg"
 width="512.000000pt" height="512.000000pt" viewBox="0 0 512.000000 512.000000"
 preserveAspectRatio="xMidYMid meet">

<g transform="translate(0.000000,512.000000) scale(0.100000,-0.100000)"
fill="#000000" stroke="none">
<path d="M0 2560 l0 -2560 2560 0 2560 0 0 2560 0 2560 -2560 0 -2560 0 0
-2560z m4180 1636 c91 -17 174 -47 220 -81 129 -95 143 -322 28 -446 l-25 -26
-94 18 c-307 60 -528 15 -585 -120 -9 -21 -14 -69 -14 -132 l0 -99 319 0 319
0 15 -37 c49 -124 60 -236 32 -330 -18 -60 -74 -116 -132 -132 -22 -6 -140
-11 -280 -11 l-243 0 0 -619 c0 -581 -1 -620 -17 -625 -82 -26 -343 -35 -443
-16 -91 17 -162 80 -192 169 -16 48 -24 1630 -9 1811 15 183 54 292 143 405
80 102 230 202 358 239 158 45 443 60 600 32z m-2300 -697 c266 -37 475 -138
622 -299 160 -175 238 -403 238 -694 -1 -291 -67 -510 -208 -688 -107 -134
-273 -234 -475 -285 -89 -23 -123 -27 -272 -27 -161 -1 -199 3 -335 38 -3 0
-7 -145 -10 -324 l-5 -325 -60 -14 c-83 -18 -367 -20 -420 -2 -70 23 -113 60
-142 120 l-28 56 -3 1024 c-3 1178 -9 1094 86 1193 181 190 602 284 1012 227z"/>
<path d="M1600 2990 c-25 -4 -70 -17 -100 -27 l-55 -19 0 -435 0 -434 65 -23
c92 -34 231 -35 314 -2 157 60 235 212 236 453 0 283 -104 449 -305 486 -65
12 -89 12 -155 1z"/>
</g>
</svg>
